# xmcd
#
# Track frame offsets:
#  150
#  13003
#  22763
#  37028
#  49797
#  63015
#  73616
#  80808
#  94086
#  108198
#  120777
#  130637
#  141603
#  153259
#
# Disc length: 2173 seconds
#
# Revision: 0
# Processed by: cddbd v1.5.2PL0 Copyright (c) Steve Scherf et al.
# Submitted via: Collectorz.com_Music_Collector 6.9
#
DISCID=ad087b0e
DTITLE=Various Artist - Country Cool Vol.1 - Nashville Legends CD 1
DYEAR=1900
DGENRE=
TTITLE0=Lynn Anderson - Rose Garden
TTITLE1=Leroy Van Dyke - Walk On By
TTITLE2=Sandy Posey - Shes Got You
TTITLE3=Faron Young - Swinging Doors
TTITLE4=David Houston - Where Love Used To Live
TTITLE5=Sammi Smith - Help Me Make It Through The Night
TTITLE6=Stonewall Jackson - Mary Don't You Weep
TTITLE7=Barbara Fairchild - The Biggest Hurt
TTITLE8=Tommy Overstreet - Heaven Is My Womans Love
TTITLE9=Bobby Helms - My Special Angel
TTITLE10=Barbara Mandrell - Release Me
TTITLE11=Billy Joe Royal - Your Cheatin Heart
TTITLE12=Melba Montgomery - Silver Threads And Golden Needles
TTITLE13=Ferlin Husky - Gone
EXTD=
EXTT0=
EXTT1=
EXTT2=
EXTT3=
EXTT4=
EXTT5=
EXTT6=
EXTT7=
EXTT8=
EXTT9=
EXTT10=
EXTT11=
EXTT12=
EXTT13=
PLAYORDER=
